<?xml version="1.0" encoding="utf-8"?>
<!-- Generator: Adobe Illustrator 26.0.1, SVG Export Plug-In . SVG Version: 6.00 Build 0)  -->
<svg version="1.1" id="Layer_1" xmlns="http://www.w3.org/2000/svg" xmlns:xlink="http://www.w3.org/1999/xlink" x="0px" y="0px"
	 viewBox="0 0 24 24" style="enable-background:new 0 0 24 24;" xml:space="preserve">
<style type="text/css">
	.st0{fill-rule:evenodd;clip-rule:evenodd;fill:#FFFFFF;}
</style>
<path class="st0" d="M14.6,14.6c0.4,0.3,0.8,1,0.8,2.1c0,1.5,0,2.7,0,3.1c0,0.3,0.2,0.6,0.8,0.5c-1.1,0.4-2.3,0.6-3.5,0.6
	c-1.2,0-2.4-0.2-3.5-0.6c0.6,0.1,0.8-0.2,0.8-0.5c0-0.3,0-1,0-1.9C6.7,18.5,6,16.3,6,16.3c-0.5-1.3-1.2-1.6-1.2-1.6
	C3.8,14,4.9,14,4.9,14c1.1,0.1,1.7,1.1,1.7,1.1c1,1.7,2.6,1.2,3.2,0.9c0.1-0.7,0.4-1.2,0.7-1.5C8,14.3,5.4,13.4,5.4,9.1
	c0-1.2,0.4-2.2,1.1-3C6.5,5.9,6.1,4.7,6.7,3.2c0,0,0.9-0.3,3.1,1.1C10.7,4.1,11.6,4,12.5,4c0.9,0,1.9,0.1,2.8,0.4
	c2.1-1.4,3.1-1.1,3.1-1.1c0.6,1.5,0.2,2.7,0.1,2.9c0.7,0.8,1.1,1.8,1.1,3C19.6,13.4,17,14.3,14.6,14.6z"/>
</svg>
