<?xml version="1.0" encoding="utf-8"?>
<!-- Generator: Adobe Illustrator 26.0.1, SVG Export Plug-In . SVG Version: 6.00 Build 0)  -->
<svg version="1.1" id="Layer_1" xmlns="http://www.w3.org/2000/svg" xmlns:xlink="http://www.w3.org/1999/xlink" x="0px" y="0px"
	 viewBox="0 0 612 792" style="enable-background:new 0 0 612 792;" xml:space="preserve">
<style type="text/css">
	.st0{fill:#FBB463;}
	.st1{fill:#212540;}
</style>
<ellipse class="st0" cx="306.5" cy="396.5" rx="33" ry="31.5"/>
<path class="st1" d="M327,415.1l-11.8-11.8c2.3-2.8,3.7-6.3,3.7-10.2c0-8.9-7.3-16.1-16.2-16.1c-8.9,0-16.2,7.2-16.2,16.1
	c0,8.9,7.3,16.1,16.2,16.1c3.8,0,7.3-1.3,10.1-3.5l11.8,11.8c0.7,0.7,1.7,0.7,2.4,0C327.7,416.8,327.7,415.8,327,415.1z
	 M289.9,393.1c0-7,5.7-12.6,12.8-12.6s12.8,5.7,12.8,12.6c0,7-5.7,12.6-12.8,12.6S289.9,400,289.9,393.1z"/>
</svg>
